<svg width="429" height="79" viewBox="0 0 429 79" fill="none" xmlns="http://www.w3.org/2000/svg">
<path d="M0.431134 77.0255H8.63497V42.3643H47.6032V35.1859H8.63497V7.80564H49.6542V0.627275H0.431134V77.0255ZM76.9904 21.8547C67.4534 21.8547 58.8394 27.4949 55.763 34.4681L62.3261 37.9547C64.8897 32.6222 70.1197 29.0331 76.9904 29.0331C84.6815 29.0331 90.2191 33.4426 90.2191 40.2108V41.6465L71.0426 46.056C60.1725 48.5172 53.712 54.0548 53.712 61.951C53.712 71.5905 61.4031 78.2561 72.7859 78.2561C79.8618 78.2561 86.835 74.3593 90.2191 68.7191V77.0255H97.3975V40.2108C97.3975 29.4433 88.9885 21.8547 76.9904 21.8547ZM72.7859 71.1803C65.8127 71.1803 61.4031 67.5911 61.4031 62.0535C61.4031 57.2338 66.0178 53.4395 72.8885 51.9013L90.2191 47.9019V53.1318C90.2191 63.4892 82.9382 71.1803 72.7859 71.1803ZM127.713 78.2561C138.993 78.2561 146.787 71.8981 146.787 62.7714C146.787 55.593 141.967 50.4656 133.046 47.6968L124.021 44.928C118.586 43.2872 115.818 40.5184 115.818 36.7242C115.818 32.1095 119.92 28.9305 126.175 28.9305C132.738 28.9305 137.865 32.4172 140.224 38.4675L146.685 35.391C143.608 26.9821 135.815 21.8547 126.175 21.8547C115.305 21.8547 108.127 28.0076 108.127 37.2369C108.127 44.5178 112.741 49.5427 121.663 52.1064L130.277 54.5675C136.122 56.2083 139.096 58.6694 139.096 62.5663C139.096 67.4886 134.481 71.0777 127.713 71.0777C120.842 71.0777 114.792 67.4886 112.023 60.4128L105.563 63.6943C109.049 72.7185 117.458 78.2561 127.713 78.2561ZM178.773 77.6408C180.106 77.6408 182.157 77.5383 183.798 77.1281V71.1803C182.773 71.3854 181.132 71.4879 179.901 71.4879C169.852 71.4879 169.852 64.207 169.852 61.3357V30.2636H182.978V23.0853H169.852V5.24194H162.673V15.1891C162.673 19.8038 159.699 23.0853 155.187 23.0853H151.906V30.2636H162.673V61.3357C162.673 71.7956 168.416 77.6408 178.773 77.6408Z" fill="white"/>
<path d="M194.883 77.0255H207.804V48.5172H223.596L239.696 77.0255H254.463L236.825 46.2611C245.542 42.7745 250.977 35.1859 250.977 24.6235C250.977 9.4464 240.004 0.627275 224.314 0.627275H194.883V77.0255ZM207.804 37.2369V12.0101H224.314C232.415 12.0101 237.851 17.035 237.851 24.6235C237.851 32.2121 232.415 37.2369 224.314 37.2369H207.804ZM311.52 47.3892C311.52 32.7248 300.445 20.5216 284.858 20.5216C269.27 20.5216 257.477 32.7248 257.477 49.3376C257.477 65.5402 269.065 78.2561 285.781 78.2561C297.061 78.2561 306.085 72.5134 309.469 64.6172L299.317 59.6949C296.856 64.207 292.446 67.386 285.883 67.386C277.372 67.386 270.911 61.7459 270.296 52.9268H310.905C311.315 51.286 311.52 49.3376 311.52 47.3892ZM270.501 43.3898C271.937 35.2885 277.679 30.7764 284.858 30.7764C291.933 30.7764 297.881 36.0063 298.291 43.3898H270.501ZM341.694 20.5216C330.721 20.5216 321.492 26.3668 318.313 34.7758L328.978 40.1083C331.029 34.8783 335.746 31.5968 341.694 31.5968C347.847 31.5968 352.051 34.9809 352.051 40.1083V41.8516L333.9 45.7484C322.723 48.2095 316.262 53.6446 316.262 61.8484C316.262 71.2828 324.056 78.2561 336.361 78.2561C343.027 78.2561 348.667 75.795 352.769 70.8726V77.0255H364.357V40.1083C364.357 28.6229 355.128 20.5216 341.694 20.5216ZM337.797 68.514C332.465 68.514 329.081 65.9503 329.081 61.7459C329.081 58.3618 331.747 55.6955 336.361 54.6701L352.051 51.1834V54.7726C352.051 62.5663 346.001 68.514 337.797 68.514ZM416.673 0.627275V27.905C412.776 23.1878 406.418 20.5216 399.034 20.5216C383.447 20.5216 371.141 33.0324 371.141 49.4401C371.141 65.7452 383.242 78.2561 399.137 78.2561C406.52 78.2561 413.186 75.4873 417.288 70.565V77.0255H428.978V0.627275H416.673ZM400.367 66.8733C390.83 66.8733 383.96 59.5924 383.96 49.4401C383.96 39.2879 390.83 31.9044 400.367 31.9044C409.802 31.9044 416.673 39.2879 416.673 49.4401C416.673 59.6949 409.802 66.8733 400.367 66.8733Z" fill="#FAFAFA"/>
</svg>
